<svg xmlns="http://www.w3.org/2000/svg" xmlns:xlink="http://www.w3.org/1999/xlink" width="48" zoomAndPan="magnify" viewBox="0 0 36 36.000001" height="48" preserveAspectRatio="xMidYMid meet" version="1.0"><defs><clipPath id="a2e80d7843"><path d="M 0.488281 0 L 35.511719 0 L 35.511719 35.027344 L 0.488281 35.027344 Z M 0.488281 0 " clip-rule="nonzero"/></clipPath></defs><g clip-path="url(#a2e80d7843)"><path fill="#e11d48" d="M 18 0 C 27.671875 0 35.511719 7.839844 35.511719 17.511719 C 35.511719 27.1875 27.671875 35.027344 18 35.027344 C 8.328125 35.027344 0.488281 27.1875 0.488281 17.511719 C 0.488281 7.839844 8.328125 0 18 0 " fill-opacity="1" fill-rule="evenodd"/></g><path fill="#ffffff" d="M 11.097656 21.589844 L 13.9375 24.433594 L 27 11.371094 L 24.160156 8.527344 Z M 13.65625 25.277344 L 10.25 21.871094 C 10.09375 21.714844 10.09375 21.464844 10.25 21.308594 L 23.875 7.683594 C 24.03125 7.527344 24.285156 7.527344 24.441406 7.683594 L 27.847656 11.089844 C 28.003906 11.246094 28.003906 11.496094 27.847656 11.652344 L 14.222656 25.277344 C 14.066406 25.433594 13.8125 25.433594 13.65625 25.277344 " fill-opacity="1" fill-rule="nonzero"/><path fill="#ffffff" d="M 25.296875 13.074219 L 22.453125 10.230469 L 21.316406 11.371094 L 24.160156 14.214844 Z M 22.738281 9.386719 L 26.144531 12.792969 C 26.296875 12.949219 26.296875 13.199219 26.144531 13.355469 L 24.441406 15.058594 C 24.285156 15.214844 24.03125 15.214844 23.875 15.058594 L 20.46875 11.652344 C 20.3125 11.496094 20.3125 11.246094 20.46875 11.089844 L 22.171875 9.386719 C 22.328125 9.230469 22.582031 9.230469 22.738281 9.386719 " fill-opacity="1" fill-rule="nonzero"/><path fill="#ffffff" d="M 10.820312 21.316406 L 14.222656 24.714844 C 14.375 24.871094 14.375 25.121094 14.222656 25.277344 C 14.171875 25.328125 14.109375 25.363281 14.046875 25.382812 L 8.574219 27.433594 L 8.574219 27.4375 C 8.367188 27.511719 8.140625 27.410156 8.0625 27.203125 C 8.023438 27.101562 8.03125 26.996094 8.070312 26.902344 L 10.160156 21.449219 L 10.53125 21.589844 L 10.160156 21.449219 C 10.238281 21.242188 10.46875 21.140625 10.675781 21.21875 C 10.734375 21.238281 10.78125 21.273438 10.820312 21.316406 Z M 13.21875 24.84375 L 10.683594 22.304688 L 9.121094 26.378906 Z M 13.21875 24.84375 " fill-opacity="1" fill-rule="nonzero"/></svg>