<svg xmlns="http://www.w3.org/2000/svg" xmlns:xlink="http://www.w3.org/1999/xlink" width="600" zoomAndPan="magnify" viewBox="0 0 450 149.999998" height="200" preserveAspectRatio="xMidYMid meet" version="1.0"><defs><g/><clipPath id="100447a029"><path d="M 65 28.929688 L 153.496094 28.929688 L 153.496094 119.679688 L 65 119.679688 Z M 65 28.929688 " clip-rule="nonzero"/></clipPath></defs><g fill="#000000" fill-opacity="1"><g transform="translate(15.536664, 101.634852)"><g><path d="M 56.8125 0 L 53.515625 0 L 48.234375 -7.328125 C 46.929688 -6.160156 45.554688 -5.070312 44.109375 -4.0625 C 42.660156 -3.050781 41.140625 -2.171875 39.546875 -1.421875 C 37.953125 -0.671875 36.316406 -0.0820312 34.640625 0.34375 C 32.960938 0.78125 31.257812 1 29.53125 1 C 25.769531 1 22.234375 0.296875 18.921875 -1.109375 C 15.617188 -2.523438 12.726562 -4.488281 10.25 -7 C 7.769531 -9.507812 5.816406 -12.484375 4.390625 -15.921875 C 2.960938 -19.367188 2.25 -23.125 2.25 -27.1875 C 2.25 -31.207031 2.960938 -34.945312 4.390625 -38.40625 C 5.816406 -41.863281 7.769531 -44.851562 10.25 -47.375 C 12.726562 -49.90625 15.617188 -51.882812 18.921875 -53.3125 C 22.234375 -54.738281 25.769531 -55.453125 29.53125 -55.453125 C 30.726562 -55.453125 31.960938 -55.351562 33.234375 -55.15625 C 34.515625 -54.957031 35.757812 -54.632812 36.96875 -54.1875 C 38.1875 -53.738281 39.328125 -53.144531 40.390625 -52.40625 C 41.460938 -51.675781 42.363281 -50.78125 43.09375 -49.71875 L 43.09375 -74.65625 L 56.8125 -74.65625 Z M 43.09375 -27.1875 C 43.09375 -29.039062 42.734375 -30.835938 42.015625 -32.578125 C 41.304688 -34.328125 40.332031 -35.875 39.09375 -37.21875 C 37.863281 -38.570312 36.425781 -39.65625 34.78125 -40.46875 C 33.132812 -41.28125 31.382812 -41.6875 29.53125 -41.6875 C 27.664062 -41.6875 25.910156 -41.351562 24.265625 -40.6875 C 22.617188 -40.03125 21.1875 -39.078125 19.96875 -37.828125 C 18.757812 -36.578125 17.804688 -35.054688 17.109375 -33.265625 C 16.410156 -31.472656 16.0625 -29.445312 16.0625 -27.1875 C 16.0625 -25.21875 16.410156 -23.351562 17.109375 -21.59375 C 17.804688 -19.832031 18.757812 -18.285156 19.96875 -16.953125 C 21.1875 -15.628906 22.617188 -14.582031 24.265625 -13.8125 C 25.910156 -13.050781 27.664062 -12.671875 29.53125 -12.671875 C 31.382812 -12.671875 33.132812 -13.078125 34.78125 -13.890625 C 36.425781 -14.703125 37.863281 -15.78125 39.09375 -17.125 C 40.332031 -18.476562 41.304688 -20.023438 42.015625 -21.765625 C 42.734375 -23.515625 43.09375 -25.320312 43.09375 -27.1875 Z M 43.09375 -27.1875 "/></g></g><g transform="translate(77.533674, 101.634852)"><g><path d="M 56.8125 -27.1875 C 56.8125 -23.195312 56.09375 -19.476562 54.65625 -16.03125 C 53.226562 -12.59375 51.285156 -9.617188 48.828125 -7.109375 C 46.367188 -4.597656 43.484375 -2.617188 40.171875 -1.171875 C 36.859375 0.273438 33.3125 1 29.53125 1 C 25.769531 1 22.234375 0.273438 18.921875 -1.171875 C 15.617188 -2.617188 12.726562 -4.597656 10.25 -7.109375 C 7.769531 -9.617188 5.816406 -12.59375 4.390625 -16.03125 C 2.960938 -19.476562 2.25 -23.195312 2.25 -27.1875 C 2.25 -31.238281 2.960938 -34.992188 4.390625 -38.453125 C 5.816406 -41.910156 7.769531 -44.894531 10.25 -47.40625 C 12.726562 -49.914062 15.617188 -51.882812 18.921875 -53.3125 C 22.234375 -54.738281 25.769531 -55.453125 29.53125 -55.453125 C 33.3125 -55.453125 36.859375 -54.78125 40.171875 -53.4375 C 43.484375 -52.09375 46.367188 -50.179688 48.828125 -47.703125 C 51.285156 -45.222656 53.226562 -42.242188 54.65625 -38.765625 C 56.09375 -35.296875 56.8125 -31.4375 56.8125 -27.1875 Z M 43.09375 -27.1875 C 43.09375 -29.375 42.734375 -31.359375 42.015625 -33.140625 C 41.304688 -34.921875 40.332031 -36.453125 39.09375 -37.734375 C 37.863281 -39.015625 36.425781 -39.992188 34.78125 -40.671875 C 33.132812 -41.347656 31.382812 -41.6875 29.53125 -41.6875 C 27.664062 -41.6875 25.910156 -41.347656 24.265625 -40.671875 C 22.617188 -39.992188 21.1875 -39.015625 19.96875 -37.734375 C 18.757812 -36.453125 17.804688 -34.921875 17.109375 -33.140625 C 16.410156 -31.359375 16.0625 -29.375 16.0625 -27.1875 C 16.0625 -25.125 16.410156 -23.207031 17.109375 -21.4375 C 17.804688 -19.675781 18.757812 -18.144531 19.96875 -16.84375 C 21.1875 -15.550781 22.617188 -14.53125 24.265625 -13.78125 C 25.910156 -13.039062 27.664062 -12.671875 29.53125 -12.671875 C 31.382812 -12.671875 33.132812 -13.019531 34.78125 -13.71875 C 36.425781 -14.414062 37.863281 -15.394531 39.09375 -16.65625 C 40.332031 -17.914062 41.304688 -19.441406 42.015625 -21.234375 C 42.734375 -23.035156 43.09375 -25.019531 43.09375 -27.1875 Z M 43.09375 -27.1875 "/></g></g><g transform="translate(136.687701, 101.634852)"><g><path d="M 18.796875 0 L 5.1875 0 L 5.1875 -53.421875 L 8.484375 -53.421875 L 12.96875 -47.078125 C 15.164062 -49.078125 17.660156 -50.613281 20.453125 -51.6875 C 23.242188 -52.769531 26.132812 -53.3125 29.125 -53.3125 L 41.140625 -53.3125 L 41.140625 -39.75 L 29.125 -39.75 C 27.695312 -39.75 26.347656 -39.484375 25.078125 -38.953125 C 23.816406 -38.421875 22.71875 -37.6875 21.78125 -36.75 C 20.851562 -35.820312 20.125 -34.722656 19.59375 -33.453125 C 19.0625 -32.191406 18.796875 -30.847656 18.796875 -29.421875 Z M 18.796875 0 "/></g></g><g transform="translate(178.983328, 101.634852)"><g><path d="M 26.4375 -13.0625 C 26.96875 -12.894531 27.5 -12.785156 28.03125 -12.734375 C 28.5625 -12.691406 29.09375 -12.671875 29.625 -12.671875 C 30.957031 -12.671875 32.238281 -12.851562 33.46875 -13.21875 C 34.695312 -13.582031 35.847656 -14.101562 36.921875 -14.78125 C 38.003906 -15.46875 38.96875 -16.300781 39.8125 -17.28125 C 40.664062 -18.257812 41.359375 -19.347656 41.890625 -20.546875 L 51.875 -10.515625 C 50.601562 -8.722656 49.144531 -7.113281 47.5 -5.6875 C 45.851562 -4.257812 44.070312 -3.046875 42.15625 -2.046875 C 40.25 -1.046875 38.238281 -0.289062 36.125 0.21875 C 34.019531 0.738281 31.851562 1 29.625 1 C 25.863281 1 22.328125 0.300781 19.015625 -1.09375 C 15.710938 -2.488281 12.820312 -4.429688 10.34375 -6.921875 C 7.875 -9.421875 5.921875 -12.390625 4.484375 -15.828125 C 3.054688 -19.273438 2.34375 -23.0625 2.34375 -27.1875 C 2.34375 -31.40625 3.054688 -35.257812 4.484375 -38.75 C 5.921875 -42.238281 7.875 -45.210938 10.34375 -47.671875 C 12.820312 -50.140625 15.710938 -52.050781 19.015625 -53.40625 C 22.328125 -54.769531 25.863281 -55.453125 29.625 -55.453125 C 31.851562 -55.453125 34.03125 -55.1875 36.15625 -54.65625 C 38.28125 -54.125 40.296875 -53.359375 42.203125 -52.359375 C 44.117188 -51.367188 45.910156 -50.148438 47.578125 -48.703125 C 49.242188 -47.253906 50.707031 -45.632812 51.96875 -43.84375 Z M 33.421875 -41.140625 C 32.785156 -41.378906 32.160156 -41.53125 31.546875 -41.59375 C 30.929688 -41.65625 30.289062 -41.6875 29.625 -41.6875 C 27.757812 -41.6875 26.003906 -41.347656 24.359375 -40.671875 C 22.710938 -39.992188 21.28125 -39.019531 20.0625 -37.75 C 18.851562 -36.488281 17.898438 -34.96875 17.203125 -33.1875 C 16.503906 -31.40625 16.15625 -29.40625 16.15625 -27.1875 C 16.15625 -26.6875 16.179688 -26.117188 16.234375 -25.484375 C 16.285156 -24.847656 16.367188 -24.207031 16.484375 -23.5625 C 16.597656 -22.914062 16.738281 -22.289062 16.90625 -21.6875 C 17.070312 -21.09375 17.289062 -20.5625 17.5625 -20.09375 Z M 33.421875 -41.140625 "/></g></g><g transform="translate(232.601016, 101.634852)"><g><path d="M 31.96875 0 C 28.675781 0 25.582031 -0.617188 22.6875 -1.859375 C 19.800781 -3.109375 17.265625 -4.820312 15.078125 -7 C 12.898438 -9.1875 11.1875 -11.722656 9.9375 -14.609375 C 8.695312 -17.503906 8.078125 -20.597656 8.078125 -23.890625 L 8.078125 -39.75 L 1.453125 -39.75 L 1.453125 -53.3125 L 8.078125 -53.3125 L 8.078125 -74.65625 L 21.640625 -74.65625 L 21.640625 -53.3125 L 42.296875 -53.3125 L 42.296875 -39.75 L 21.640625 -39.75 L 21.640625 -23.890625 C 21.640625 -22.460938 21.90625 -21.125 22.4375 -19.875 C 22.96875 -18.625 23.695312 -17.535156 24.625 -16.609375 C 25.5625 -15.679688 26.660156 -14.941406 27.921875 -14.390625 C 29.191406 -13.835938 30.539062 -13.5625 31.96875 -13.5625 L 42.296875 -13.5625 L 42.296875 0 Z M 31.96875 0 "/></g></g><g transform="translate(277.340613, 101.634852)"><g><path d="M 44.4375 -6.234375 C 43.34375 -5.234375 42.171875 -4.289062 40.921875 -3.40625 C 39.671875 -2.53125 38.363281 -1.769531 37 -1.125 C 35.644531 -0.476562 34.242188 0.0351562 32.796875 0.421875 C 31.347656 0.804688 29.875 1 28.375 1 C 25.082031 1 21.988281 0.414062 19.09375 -0.75 C 16.207031 -1.914062 13.675781 -3.566406 11.5 -5.703125 C 9.320312 -7.847656 7.609375 -10.457031 6.359375 -13.53125 C 5.109375 -16.613281 4.484375 -20.066406 4.484375 -23.890625 L 4.484375 -53.421875 L 18.046875 -53.421875 L 18.046875 -23.890625 C 18.046875 -22.097656 18.320312 -20.492188 18.875 -19.078125 C 19.425781 -17.660156 20.164062 -16.46875 21.09375 -15.5 C 22.03125 -14.539062 23.117188 -13.8125 24.359375 -13.3125 C 25.609375 -12.8125 26.945312 -12.5625 28.375 -12.5625 C 29.769531 -12.5625 31.09375 -12.882812 32.34375 -13.53125 C 33.59375 -14.1875 34.679688 -15.046875 35.609375 -16.109375 C 36.535156 -17.171875 37.265625 -18.375 37.796875 -19.71875 C 38.335938 -21.070312 38.609375 -22.460938 38.609375 -23.890625 L 38.609375 -53.421875 L 52.21875 -53.421875 L 52.21875 0 L 48.921875 0 Z M 44.4375 -6.234375 "/></g></g><g transform="translate(334.748947, 101.634852)"><g><path d="M 18.796875 0 L 5.1875 0 L 5.1875 -53.421875 L 8.484375 -53.421875 L 12.96875 -47.078125 C 15.164062 -49.078125 17.660156 -50.613281 20.453125 -51.6875 C 23.242188 -52.769531 26.132812 -53.3125 29.125 -53.3125 L 41.140625 -53.3125 L 41.140625 -39.75 L 29.125 -39.75 C 27.695312 -39.75 26.347656 -39.484375 25.078125 -38.953125 C 23.816406 -38.421875 22.71875 -37.6875 21.78125 -36.75 C 20.851562 -35.820312 20.125 -34.722656 19.59375 -33.453125 C 19.0625 -32.191406 18.796875 -30.847656 18.796875 -29.421875 Z M 18.796875 0 "/></g></g><g transform="translate(377.044574, 101.634852)"><g><path d="M 18.796875 0 L 5.1875 0 L 5.1875 -53.421875 L 8.484375 -53.421875 L 12.96875 -48.234375 C 15.164062 -50.222656 17.648438 -51.757812 20.421875 -52.84375 C 23.203125 -53.925781 26.101562 -54.46875 29.125 -54.46875 C 32.382812 -54.46875 35.457031 -53.84375 38.34375 -52.59375 C 41.238281 -51.34375 43.765625 -49.628906 45.921875 -47.453125 C 48.085938 -45.273438 49.796875 -42.726562 51.046875 -39.8125 C 52.296875 -36.90625 52.921875 -33.804688 52.921875 -30.515625 L 52.921875 0 L 39.296875 0 L 39.296875 -30.515625 C 39.296875 -31.910156 39.03125 -33.234375 38.5 -34.484375 C 37.96875 -35.734375 37.234375 -36.820312 36.296875 -37.75 C 35.367188 -38.6875 34.289062 -39.421875 33.0625 -39.953125 C 31.832031 -40.484375 30.519531 -40.75 29.125 -40.75 C 27.695312 -40.75 26.347656 -40.484375 25.078125 -39.953125 C 23.816406 -39.421875 22.71875 -38.6875 21.78125 -37.75 C 20.851562 -36.820312 20.125 -35.734375 19.59375 -34.484375 C 19.0625 -33.234375 18.796875 -31.910156 18.796875 -30.515625 Z M 18.796875 0 "/></g></g></g><g clip-path="url(#100447a029)"><path fill="#8c8c8c" d="M 153.246094 73.542969 L 140.234375 73.542969 C 117.953125 68.722656 112.996094 63.75 108.175781 41.4375 L 108.175781 28.929688 L 106.53125 28.929688 L 106.53125 41.570312 C 101.71875 63.769531 96.738281 68.734375 74.503906 73.542969 L 65.007812 73.542969 L 65.007812 75.191406 L 74.503906 75.191406 C 96.738281 80.003906 101.71875 84.964844 106.53125 107.167969 L 106.53125 119.574219 L 108.175781 119.574219 L 108.175781 107.296875 C 112.996094 84.984375 117.953125 80.011719 140.234375 75.191406 L 153.246094 75.191406 Z M 153.246094 73.542969 " fill-opacity="1" fill-rule="nonzero"/></g></svg>